<?xml version="1.0" encoding="UTF-8" standalone="no"?>
<svg
   xmlns:dc="http://purl.org/dc/elements/1.1/"
   xmlns:cc="http://creativecommons.org/ns#"
   xmlns:rdf="http://www.w3.org/1999/02/22-rdf-syntax-ns#"
   xmlns:svg="http://www.w3.org/2000/svg"
   xmlns="http://www.w3.org/2000/svg"
   xmlns:sodipodi="http://sodipodi.sourceforge.net/DTD/sodipodi-0.dtd"
   xmlns:inkscape="http://www.inkscape.org/namespaces/inkscape"
   width="256"
   height="256"
   viewBox="0 0 67.733332 67.733335"
   version="1.1"
   id="svg8"
   inkscape:version="0.92.5 (2060ec1f9f, 2020-04-08)"
   sodipodi:docname="tree.svg">
  <defs
     id="defs2" />
  <sodipodi:namedview
     id="base"
     pagecolor="#ffffff"
     bordercolor="#666666"
     borderopacity="1.0"
     inkscape:pageopacity="0.0"
     inkscape:pageshadow="2"
     inkscape:zoom="1.3004036"
     inkscape:cx="52.104563"
     inkscape:cy="217.20709"
     inkscape:document-units="mm"
     inkscape:current-layer="layer1"
     inkscape:document-rotation="0"
     showgrid="false"
     units="px"
     inkscape:snap-page="true"
     inkscape:window-width="2512"
     inkscape:window-height="1376"
     inkscape:window-x="48"
     inkscape:window-y="27"
     inkscape:window-maximized="1" />
  <metadata
     id="metadata5">
    <rdf:RDF>
      <cc:Work
         rdf:about="">
        <dc:format>image/svg+xml</dc:format>
        <dc:type
           rdf:resource="http://purl.org/dc/dcmitype/StillImage" />
        <dc:title />
      </cc:Work>
    </rdf:RDF>
  </metadata>
  <g
     inkscape:label="Lager 1"
     inkscape:groupmode="layer"
     id="layer1">
    <rect
       style="fill:#8ae234;stroke:none;stroke-width:4.99999"
       id="rect833"
       width="67.73333"
       height="67.73333"
       x="0"
       y="0" />
    <path
       style="fill:#4e9a06;stroke:none;stroke-width:5.7484231"
       id="path835"
       d="m 18.79707,7.2362243 c -1.404082,4.1605537 -2.754068,8.3394437 -4.085336,12.5238727 -0.536205,1.706246 -1.026614,3.426056 -1.506423,5.148776 0,0 2.922186,-1.398147 2.922186,-1.398147 v 0 c 0.389462,-1.687231 0.798499,-3.370078 1.2938,-5.030177 1.292457,-4.286544 2.61126,-8.6044906 4.533356,-12.6572315 0,0 -3.157583,1.4129068 -3.157583,1.4129068 z"
       inkscape:connector-curvature="0" />
    <path
       style="fill:#4e9a06;stroke:none;stroke-width:5.7484231"
       id="path837"
       d="m 31.700798,20.348865 c -0.04855,0.170393 -0.09234,0.342217 -0.145653,0.511179 -0.298394,0.945626 -0.199596,0.496333 -0.48834,1.521961 -0.305914,1.086617 -0.51508,2.181805 -0.709495,3.292767 -0.254448,1.487555 -0.449,2.983932 -0.624952,4.482432 0,0 2.982086,-1.481337 2.982086,-1.481337 v 0 c 0.12866,-1.480587 0.289573,-2.959221 0.564683,-4.420997 0.37948,-1.832093 0.824526,-3.648988 1.555526,-5.377948 0,0 -3.133855,1.471943 -3.133855,1.471943 z"
       inkscape:connector-curvature="0" />
    <path
       style="fill:#4e9a06;stroke:none;stroke-width:5.7484231"
       id="path839"
       d="m 40.972537,40.955373 c -0.713212,1.563575 -1.376886,3.15108 -2.066684,4.725987 -0.989992,2.574455 -2.019835,5.132442 -3.105869,7.66854 0,0 2.965569,-1.367943 2.965569,-1.367943 v 0 c 1.018211,-2.579594 2.059897,-5.149921 3.170387,-7.691461 0.688646,-1.604732 1.336578,-3.233655 2.173807,-4.768508 0,0 -3.13721,1.433385 -3.13721,1.433385 z"
       inkscape:connector-curvature="0" />
    <path
       style="fill:#4e9a06;stroke:none;stroke-width:5.7484231"
       id="path841"
       d="m 20.468562,43.355401 c 1.629527,2.566231 2.374716,5.44286 3.062179,8.3688 0.416488,1.910328 0.72568,3.842404 0.891196,5.790376 0,0 2.976272,-1.556001 2.976272,-1.556001 v 0 c -0.242176,-1.929017 -0.680652,-3.824023 -1.123546,-5.715525 -0.478277,-1.921857 -0.916905,-3.880049 -1.580068,-5.749518 -0.14,-0.394663 -0.764332,-1.771503 -0.967849,-2.244278 -0.08277,-0.192262 -0.159795,-0.386939 -0.239693,-0.580409 0,0 -3.018491,1.686555 -3.018491,1.686555 z"
       inkscape:connector-curvature="0" />
    <path
       style="fill:#4e9a06;stroke:none;stroke-width:5.7484231"
       id="path843"
       d="m 51.134501,34.775831 c 0.549771,2.998688 0.913904,6.023104 1.179248,9.058877 0.282438,2.851683 -0.325286,5.663265 -0.915966,8.435361 0,0 2.929371,-1.420959 2.929371,-1.420959 v 0 c 0.515401,-2.802476 1.169992,-5.641161 0.843312,-8.506156 -0.34559,-3.045134 -0.799363,-6.080757 -1.020857,-9.13799 0,0 -3.015108,1.570867 -3.015108,1.570867 z"
       inkscape:connector-curvature="0" />
    <path
       style="fill:#4e9a06;stroke:none;stroke-width:5.7484231"
       id="path845"
       d="m 43.957138,8.1372374 c -0.497788,1.4945539 -1.036812,3.0616856 -1.439125,4.5717176 -0.331336,1.24364 -0.61056,2.500709 -0.894729,3.755967 -0.808081,3.56952 -1.501144,7.161504 -2.17387,10.758315 0,0 2.582394,-1.260423 2.582394,-1.260423 v 0 c 0.939001,-5.885399 1.933349,-11.855589 4.183741,-17.4079253 0.255679,-0.6308286 0.574374,-1.2342452 0.86156,-1.8513673 0,0 -3.119971,1.433716 -3.119971,1.433716 z"
       inkscape:connector-curvature="0" />
    <path
       style="fill:#4e9a06;stroke:none;stroke-width:5.7484231"
       id="path847"
       d="m 24.462116,11.734485 c -0.04559,3.832541 0.01203,7.664681 0.05203,11.496934 0.01789,1.794309 -0.02567,3.588144 -0.07073,5.381657 0,0 2.858724,-1.453824 2.858724,-1.453824 v 0 c -0.01782,-1.775755 -0.036,-3.551509 -0.05145,-5.327288 -0.07463,-3.877033 -0.18208,-7.771951 0.263083,-11.632478 0,0 -3.051662,1.534999 -3.051662,1.534999 z"
       inkscape:connector-curvature="0" />
    <path
       style="fill:#4e9a06;stroke:none;stroke-width:5.7484231"
       id="path849"
       d="m 4.9752611,9.9845842 c 0.3494104,4.4682058 0.8102282,8.9269638 1.2329131,13.3889648 0.4759146,4.732558 0.7729179,9.480172 0.9597753,14.23216 0.1569082,1.778414 0.2865147,3.558015 0.3709971,5.341275 0,0 2.8775384,-1.485573 2.8775384,-1.485573 v 0 C 10.310392,39.677583 10.224576,37.892425 10.051255,36.113315 9.6331209,31.425227 9.1024898,26.747168 8.7430149,22.053575 8.3673915,17.522722 8.0052091,12.98372 7.9867255,8.4344728 c 0,0 -3.0114644,1.5501114 -3.0114644,1.5501114 z"
       inkscape:connector-curvature="0" />
    <path
       style="fill:#4e9a06;stroke:none;stroke-width:5.7484231"
       id="path851"
       d="m 11.589241,2.240012 c 0.402817,3.1842181 0.58946,6.3920184 0.7494,9.596292 0.01382,0.301414 0.02764,0.602827 0.04146,0.90424 0,0 2.955627,-1.531627 2.955627,-1.531627 v 0 c -0.02722,-0.295236 -0.05445,-0.590472 -0.08167,-0.88571 -0.322044,-3.1928862 -0.661785,-6.3970237 -0.641777,-9.60926816 0,0 -3.023034,1.52607316 -3.023034,1.52607316 z"
       inkscape:connector-curvature="0" />
    <path
       style="fill:#4e9a06;stroke:none;stroke-width:5.7484231"
       id="path853"
       d="m -2.9872741,2.6829426 c 0.1772687,0.9505102 0.094146,0.4457914 0.2414233,1.515444 0,0 2.95387545,-1.5502558 2.95387545,-1.5502558 v 0 C 0.09177946,1.5439645 0.14868298,2.069943 0.03812897,1.0701077 c 0,0 -3.02540307,1.6128349 -3.02540307,1.6128349 z"
       inkscape:connector-curvature="0" />
    <path
       style="fill:#4e9a06;stroke:none;stroke-width:5.7484231"
       id="path855"
       d="m -0.39593614,49.093677 c 0.37858179,5.095118 0.43550843,10.20819 0.44565763,15.31533 0,0 2.73998351,-1.403313 2.73998351,-1.403313 v 0 C 2.583102,57.865166 2.3761121,52.711722 2.5963111,47.569051 c 0,0 -2.99224724,1.524626 -2.99224724,1.524626 z"
       inkscape:connector-curvature="0" />
    <path
       style="fill:#4e9a06;stroke:none;stroke-width:5.7484231"
       id="path857"
       d="m 14.519979,52.137628 c 0.929675,3.800436 1.351767,7.700519 1.712546,11.5889 0.162728,1.929821 0.276741,3.864273 0.301286,5.800974 -3.35e-4,0.158927 -6.39e-4,0.317856 -9.74e-4,0.476782 0,0 3.039039,-1.554547 3.039039,-1.554547 v 0 c -0.0054,-0.157624 -0.01069,-0.315245 -0.01605,-0.47287 -0.08452,-1.90772 -0.335653,-3.800433 -0.559187,-5.695822 -0.470568,-3.917014 -1.007727,-7.826776 -1.433685,-11.748498 0,0 -3.042969,1.605081 -3.042969,1.605081 z"
       inkscape:connector-curvature="0" />
    <path
       style="fill:#4e9a06;stroke:none;stroke-width:5.7484231"
       id="path859"
       d="m 62.194666,41.311279 c 0.01423,4.970657 -0.274733,9.940289 -0.529043,14.903667 -0.114118,1.836125 -0.168374,3.674992 -0.187636,5.514278 0,0 2.970173,-1.520335 2.970173,-1.520335 v 0 c -0.08703,-1.787126 -0.125123,-3.576594 -0.06603,-5.365648 0.107668,-5.047863 0.261331,-10.107602 0.874254,-15.123477 0,0 -3.061726,1.591515 -3.061726,1.591515 z"
       inkscape:connector-curvature="0" />
    <path
       style="fill:#4e9a06;stroke:none;stroke-width:5.7484231"
       id="path861"
       d="m 45.48096,58.992946 c 0.580095,2.402571 1.048353,4.826106 1.466185,7.26135 0.214511,1.134509 0.351103,2.280711 0.482558,3.426973 0,0 2.920752,-1.535571 2.920752,-1.535571 v 0 c -0.163245,-1.144057 -0.324507,-2.288531 -0.515686,-3.428363 -0.462756,-2.435761 -1.013719,-4.858743 -1.339067,-7.317579 0,0 -3.014742,1.59319 -3.014742,1.59319 z"
       inkscape:connector-curvature="0" />
    <path
       style="fill:#4e9a06;stroke:none;stroke-width:5.7484231"
       id="path863"
       d="m 61.066421,2.198807 c 1.090179,4.1338346 1.494825,8.405329 1.904594,12.648234 0,0 2.608172,-1.364249 2.608172,-1.364249 v 0 C 65.07109,9.1832789 64.580808,4.8814249 64.094688,0.57964621 c 0,0 -3.028267,1.61916079 -3.028267,1.61916079 z"
       inkscape:connector-curvature="0" />
    <path
       style="fill:#4e9a06;stroke:none;stroke-width:5.7484231"
       id="path865"
       d="m 53.090077,19.412164 c 0.811013,3.180932 0.479041,6.468912 0.118012,9.686259 -0.05439,0.410255 -0.108795,0.820507 -0.163185,1.23076 0,0 2.923314,-1.449079 2.923314,-1.449079 v 0 c 0.03572,-0.402763 0.07144,-0.805526 0.107174,-1.208292 0.261641,-3.298841 0.478904,-6.61139 0.04816,-9.90849 0,0 -3.033472,1.648842 -3.033472,1.648842 z"
       inkscape:connector-curvature="0" />
    <path
       style="fill:#4e9a06;stroke:none;stroke-width:5.7484231"
       id="path867"
       d="m 32.941804,1.6952001 c -0.0858,1.3088343 -0.185296,2.6167973 -0.258085,3.9264566 -0.08917,0.8070343 0.01506,1.6322451 -0.124991,2.4319398 -0.25571,0.8717398 -0.668983,1.6899352 -1.122931,2.4740595 -0.256367,0.462949 -0.137211,0.237238 -0.359313,0.67616 0,0 3.134341,-1.4156535 3.134341,-1.4156535 v 0 c 0.214668,-0.4207785 0.100057,-0.2026622 0.345246,-0.6535982 0.450144,-0.8204741 0.871539,-1.6845155 1.086316,-2.5981844 0.08944,-0.8090779 0.0195,-1.627238 0.06906,-2.4396761 0.04909,-1.3033449 0.08618,-2.6210371 0.358943,-3.90022951 0,0 -3.128589,1.49872581 -3.128588,1.49872581 z"
       inkscape:connector-curvature="0" />
    <path
       style="fill:#73d216;stroke:none;stroke-width:5.7484231"
       id="path869"
       d="m 15.190915,33.095952 c 0.07738,1.55751 0.05932,3.117723 0.03194,4.676288 0.0159,1.491203 -0.04608,2.982424 -0.101759,4.472364 0,0 2.962723,-1.497432 2.962723,-1.497432 v 0 c 0.04185,-1.502707 0.129935,-3.003932 0.146072,-4.507089 -0.02808,-1.56944 -0.04391,-3.140398 0.03194,-4.70884 0,0 -3.070917,1.564709 -3.070916,1.564709 z"
       inkscape:connector-curvature="0" />
    <path
       style="fill:#73d216;stroke:none;stroke-width:5.7484231"
       id="path871"
       d="m -1.4296214,15.974407 c 0.63399568,2.882176 0.76605585,5.849062 0.90077064,8.788536 0.0144033,0.46665 0.02881,0.933302 0.0432133,1.399953 0,0 2.87081436,-1.480106 2.87081436,-1.480106 v 0 c -0.029967,-0.459518 -0.059933,-0.919035 -0.0899,-1.378553 -0.1939027,-2.98202 -0.3701653,-5.967243 -0.678873,-8.940008 0,0 -3.0460264,1.610178 -3.0460253,1.610178 z"
       inkscape:connector-curvature="0" />
    <path
       style="fill:#73d216;stroke:none;stroke-width:5.7484231"
       id="path873"
       d="m 11.801078,21.422482 c -0.124933,2.554655 0.146005,5.109646 0.275425,7.660053 0.09526,2.429091 0.05614,1.246179 0.119587,3.548657 0,0 2.822155,-1.45163 2.822155,-1.45163 v 0 c -0.112726,-2.283709 -0.05762,-1.107707 -0.16422,-3.528051 -0.10254,-2.594806 -0.301802,-5.214447 0.03054,-7.800143 0,0 -3.083485,1.571114 -3.083483,1.571114 z"
       inkscape:connector-curvature="0" />
    <path
       style="fill:#73d216;stroke:none;stroke-width:5.7484231"
       id="path875"
       d="m 35.342623,18.011336 c 0.55441,1.889222 0.699611,3.868988 0.837958,5.823892 0.09184,1.505116 0.123748,3.012968 0.125384,4.520599 0,0 2.98656,-1.52661 2.98656,-1.52661 v 0 c -0.03751,-1.503692 -0.06731,-3.00849 -0.196332,-4.507962 -0.166877,-1.996819 -0.346477,-3.998097 -0.718923,-5.968964 0,0 -3.034647,1.659045 -3.034647,1.659045 z"
       inkscape:connector-curvature="0" />
    <path
       style="fill:#73d216;stroke:none;stroke-width:5.7484231"
       id="path877"
       d="m 50.991514,2.8214279 c 1.366689,3.9422785 2.684833,7.8992711 3.889798,11.8942251 0.739882,2.558659 1.375939,5.144064 1.96736,7.740267 0,0 2.898112,-1.567476 2.898112,-1.567476 v 0 C 59.047234,18.335681 58.318545,15.79184 57.531154,13.264465 56.791758,10.899653 56.054547,8.5343933 55.336498,6.1629878 55.079645,5.3147118 54.484148,3.3633874 54.242477,2.4309967 54.136845,2.0234551 54.05712,1.6096342 53.96444,1.1989527 c 0,0 -2.972926,1.6224752 -2.972926,1.6224752 z"
       inkscape:connector-curvature="0" />
    <path
       style="fill:#73d216;stroke:none;stroke-width:5.7484231"
       id="path879"
       d="m 62.87512,25.199079 c -1.147589,3.440884 -2.616151,6.762998 -4.024265,10.102358 -0.854302,2.070833 -1.700389,4.14618 -2.695929,6.153918 0,0 3.02504,-1.372612 3.02504,-1.372612 v 0 c 0.948631,-1.98886 1.781482,-4.027692 2.529576,-6.100381 1.367567,-3.432132 2.81013,-6.834009 4.270598,-10.227511 0,0 -3.10502,1.444228 -3.10502,1.444228 z"
       inkscape:connector-curvature="0" />
    <path
       style="fill:#73d216;stroke:none;stroke-width:5.7484231"
       id="path881"
       d="m 34.493312,37.57092 c 1.000592,2.435125 1.526373,5.041028 1.985843,7.624581 0.04173,0.359158 0.08346,0.718313 0.125179,1.077467 0,0 2.912268,-1.53032 2.912268,-1.53032 v 0 c -0.0496,-0.362969 -0.09921,-0.725942 -0.148799,-1.088912 -0.539481,-2.599812 -1.210684,-5.170912 -1.853883,-7.746396 0,0 -3.020608,1.66358 -3.020608,1.66358 z"
       inkscape:connector-curvature="0" />
    <path
       style="fill:#73d216;stroke:none;stroke-width:5.7484231"
       id="path883"
       d="m 31.83845,47.221613 c 0.112026,1.981851 0.0849,3.968339 0.05317,5.952091 -0.01946,0.935567 -0.0115,0.485673 -0.02449,1.349674 0,0 3.016226,-1.536843 3.016226,-1.536843 v 0 c -0.01296,-0.849348 -0.0049,-0.407771 -0.02449,-1.324721 -0.03256,-2.001863 -0.05652,-4.006198 0.05316,-6.006271 0,0 -3.073585,1.56607 -3.073584,1.56607 z"
       inkscape:connector-curvature="0" />
    <path
       style="fill:#73d216;stroke:none;stroke-width:5.7484231"
       id="path885"
       d="m 25.577757,36.311733 c -0.470425,2.36554 -0.954164,4.743496 -1.139579,7.152772 -0.04268,0.554543 -0.04891,1.111292 -0.07336,1.666938 -0.03561,1.675202 -0.03044,3.351153 0.04353,5.025063 0,0 2.953347,-1.529243 2.953347,-1.529243 v 0 c -0.143624,-1.637195 -0.194135,-3.281259 -0.160264,-4.924811 0.02619,-0.548937 0.03503,-1.098979 0.07856,-1.646813 0.194194,-2.443776 0.667562,-4.881274 1.402332,-7.218421 0,0 -3.104564,1.474515 -3.104564,1.474515 z"
       inkscape:connector-curvature="0" />
    <path
       style="fill:#73d216;stroke:none;stroke-width:5.7484231"
       id="path887"
       d="m 6.1705605,52.947638 c 0.1093329,1.917225 0.077413,3.839522 0.046107,5.758614 0,0 2.9477364,-1.501947 2.9477364,-1.501947 v 0 c -0.032099,-1.934805 -0.061152,-3.87255 0.046102,-5.805598 0,0 -3.0399502,1.548931 -3.0399502,1.548931 z"
       inkscape:connector-curvature="0" />
    <path
       style="fill:#73d216;stroke:none;stroke-width:5.7484231"
       id="path889"
       d="m -2.029567,33.777972 c -0.1719834,2.914347 -0.6353266,5.800196 -1.0693944,8.684062 -0.060283,0.396701 -0.1205649,0.793401 -0.1808474,1.190103 0,0 2.93352925,-1.446061 2.93352925,-1.446061 v 0 c 0.0443791,-0.388348 0.0887581,-0.776696 0.13313639,-1.165043 0.36780808,-2.950332 0.79938963,-5.892205 1.25824896,-8.829683 0,0 -3.0746728,1.566622 -3.0746728,1.566622 z"
       inkscape:connector-curvature="0" />
    <path
       style="fill:#73d216;stroke:none;stroke-width:5.7484231"
       id="path891"
       d="m 3.3054257,41.208257 c 0.1041041,3.140854 0.2577016,6.279067 0.5302713,9.410101 0.049586,0.428808 0.099172,0.857613 0.1487584,1.286421 0,0 2.877628,-1.515462 2.877628,-1.515462 v 0 C 6.7969766,49.97306 6.7318618,49.556799 6.6667504,49.140543 6.3176637,45.992328 6.133143,42.823681 6.3486629,39.657649 c 0,0 -3.0432372,1.550608 -3.0432372,1.550608 z"
       inkscape:connector-curvature="0" />
    <path
       style="fill:#73d216;stroke:none;stroke-width:5.7484231"
       id="path895"
       d="m 6.2317446,26.384807 c -0.9468618,1.882106 -2.0472454,3.680612 -2.9946018,5.563118 -0.085231,0.181668 -0.170461,0.363335 -0.2556911,0.545002 0,0 3.0845296,-1.409608 3.0845296,-1.409608 v 0 c 0.076043,-0.173861 0.1520857,-0.347726 0.2281288,-0.521591 0.9112572,-1.917883 1.965804,-3.762586 3.072879,-5.573654 0,0 -3.1352445,1.396733 -3.1352445,1.396733 z"
       inkscape:connector-curvature="0" />
    <path
       style="fill:#73d216;stroke:none;stroke-width:5.7484231"
       id="path897"
       d="m 3.4148083,3.3376431 c 0.3884426,2.1781126 0.5118008,4.3893434 0.7134446,6.589044 0.07942,0.4211629 0.1537312,0.8433209 0.238261,1.2634879 1.1525441,5.728859 -0.5337114,-2.8299191 0.5978027,2.871757 0.212302,1.069785 0.4040326,2.127971 0.692585,3.179844 0.077049,0.205499 0.1540977,0.410998 0.2311464,0.616497 0,0 2.9504335,-1.650062 2.9504335,-1.650062 v 0 C 8.7546118,16.018716 8.6707421,15.829221 8.5868713,15.639725 7.8205256,13.293939 7.4340204,10.827308 7.0675669,8.3937061 6.8494322,6.18635 6.5798973,3.9832715 6.426173,1.7702277 c 0,0 -3.0113647,1.5674154 -3.0113647,1.5674154 z"
       inkscape:connector-curvature="0" />
    <path
       style="fill:#73d216;stroke:none;stroke-width:5.7484231"
       id="path899"
       d="m 10.18665,1.5742121 c 3.537901,2.5338677 6.879187,5.3186834 10.057768,8.2875534 0.418199,0.4354655 0.836398,0.8709305 1.254597,1.3063945 0,0 2.680146,-1.6411351 2.680146,-1.6411351 v 0 C 23.739603,9.0988505 23.300044,8.670676 22.860485,8.2425015 19.641111,5.3604616 16.267687,2.6595266 13.047486,-0.22016835 c 0,0 -2.860836,1.79438045 -2.860836,1.79438045 z"
       inkscape:connector-curvature="0" />
    <path
       style="fill:#73d216;stroke:none;stroke-width:5.7484231"
       id="path901"
       d="m 39.678485,2.2960498 c 0.567712,2.027323 1.090593,4.0644407 1.571466,6.1139404 0,0 2.711151,-1.4586986 2.711151,-1.4586986 v 0 C 43.50064,4.8629893 43.020364,2.7731949 42.711185,0.65602784 c 0,0 -3.0327,1.64002196 -3.0327,1.64002196 z"
       inkscape:connector-curvature="0" />
    <path
       style="fill:#73d216;stroke:none;stroke-width:5.7484231"
       id="path903"
       d="m 65.276714,67.401901 c 0.458755,1.813389 0.664067,3.680799 0.834954,5.540111 0.01439,0.186599 0.02878,0.373197 0.04318,0.559794 0,0 3.010622,-1.573606 3.010622,-1.573606 v 0 c -0.02412,-0.182802 -0.04826,-0.3656 -0.0724,-0.548403 -0.257303,-1.868401 -0.540968,-3.73311 -0.786605,-5.603088 0,0 -3.029765,1.625192 -3.029765,1.625192 z"
       inkscape:connector-curvature="0" />
    <path
       style="fill:#73d216;stroke:none;stroke-width:5.7484231"
       id="path905"
       d="m 56.261497,54.487994 c 0.473336,1.111975 0.680043,2.310098 0.903879,3.490242 0,0 2.901264,-1.547912 2.901264,-1.547912 v 0 c -0.231834,-1.20555 -0.453237,-2.41386 -0.754727,-3.604568 0,0 -3.050416,1.662238 -3.050416,1.662238 z"
       inkscape:connector-curvature="0" />
    <path
       style="fill:#73d216;stroke:none;stroke-width:5.7484231"
       id="path907"
       d="m 36.805089,62.442283 c 0.07848,1.088804 0.06918,2.181055 0.0698,3.271801 0,0 2.91365,-1.484579 2.91365,-1.484579 v 0 c 6.09e-4,-1.114489 -0.0069,-2.230269 0.0698,-3.34293 0,0 -3.053248,1.555708 -3.053248,1.555708 z"
       inkscape:connector-curvature="0" />
    <path
       style="fill:#73d216;stroke:none;stroke-width:5.7484231"
       id="path909"
       d="m 24.789024,60.274283 c 1.325603,2.451335 2.3593,5.041928 3.281187,7.667229 0.288791,0.807385 0.548193,1.624322 0.79346,2.445729 0,0 2.960881,-1.630867 2.960881,-1.630867 v 0 c -0.296027,-0.800155 -0.602433,-1.596284 -0.920445,-2.388009 -1.016893,-2.600008 -2.116945,-5.166992 -3.098195,-7.780232 0,0 -3.016888,1.68615 -3.016888,1.68615 z"
       inkscape:connector-curvature="0" />
    <path
       style="fill:#73d216;stroke:none;stroke-width:5.7484231"
       id="path911"
       d="m 65.727524,30.29936 c 0.08957,1.690605 0.05471,3.384956 0.02108,5.076721 0.0198,0.22955 0.02391,0.460991 0.05938,0.688646 0.05194,0.333441 0.135208,0.661243 0.202403,0.991951 0.2285,1.124611 0.363728,1.745513 0.548619,2.926802 0.228603,1.460565 0.287375,2.13063 0.450124,3.589607 0.182003,2.005901 0.09499,1.049458 0.260928,2.869339 0,0 2.879549,-1.507742 2.879549,-1.507742 v 0 c -0.236407,-1.784825 -0.11879,-0.843263 -0.34805,-2.825283 -0.213561,-1.771834 -0.415196,-3.546811 -0.667115,-5.313738 -0.125164,-0.877874 -0.246225,-1.427511 -0.333064,-2.283436 -0.02264,-0.223155 -0.02595,-0.447852 -0.03892,-0.671778 -0.03449,-1.69896 -0.06703,-3.400322 0.02107,-5.098199 0,0 -3.056,1.55711 -3.056,1.55711 z"
       inkscape:connector-curvature="0" />
    <path
       style="fill:#73d216;stroke:none;stroke-width:5.7484231"
       id="path913"
       d="m 67.733333,3.1443356 c 0.364409,2.6330163 0.511663,5.2914663 0.593976,7.9465764 0.06175,3.444923 -0.0018,6.898581 -0.251728,10.335848 0,0 2.932261,-1.475997 2.932261,-1.475997 v 0 c 0.0857,-3.426496 0.09519,-6.85564 0.09659,-10.2829739 -0.04175,-2.7027978 -0.196341,-5.3991004 -0.278397,-8.0992584 0,0 -3.092691,1.5758049 -3.092691,1.5758049 z"
       inkscape:connector-curvature="0" />
    <path
       style="fill:#4e9a06;stroke:none;stroke-width:5.7484231"
       id="path915"
       d="m 43.236724,28.682048 c 0.188791,2.665699 -0.06391,5.337459 -0.264975,7.994854 -0.159854,2.254192 -0.395232,4.502619 -0.484474,6.761123 -0.0064,0.235092 -0.01277,0.47018 -0.01916,0.705272 0,0 3.004349,-1.52255 3.004349,-1.52255 v 0 c 0.0038,-0.232448 0.0076,-0.464896 0.0115,-0.697345 0.05644,-2.221426 0.151799,-4.442127 0.311022,-6.658726 0.198131,-2.718051 0.431607,-5.43448 0.534167,-8.15828 0,0 -3.092394,1.575652 -3.092394,1.575652 z"
       inkscape:connector-curvature="0" />
    <path
       style="fill:#4e9a06;stroke:none;stroke-width:5.7484231"
       id="path917"
       d="m 25.763061,12.490726 c -0.464938,2.440223 -1.155455,4.830523 -1.791548,7.230073 0,0 2.976217,-1.42644 2.976217,-1.42644 v 0 c 0.564984,-2.451748 1.206718,-4.885161 1.912084,-7.300278 0,0 -3.096753,1.496645 -3.096753,1.496645 z"
       inkscape:connector-curvature="0" />
    <path
       style="fill:#4e9a06;stroke:none;stroke-width:5.7484231"
       id="path919"
       d="m 19.100773,21.781544 c -1.116223,3.472874 -2.453142,6.868762 -3.732208,10.283481 0,0 2.902562,-1.355382 2.902562,-1.355382 v 0 c 1.191031,-3.493976 2.466154,-6.963392 3.91306,-10.360062 0,0 -3.083414,1.431963 -3.083414,1.431963 z"
       inkscape:connector-curvature="0" />
    <path
       style="fill:#4e9a06;stroke:none;stroke-width:5.7484231"
       id="path921"
       d="m 9.5069807,24.723831 c 0.9100903,3.588363 1.3207223,7.277805 1.6650363,10.956016 0.130744,2.23211 0.362424,4.454985 0.544,6.683031 0,0 2.913881,-1.518244 2.913881,-1.518244 v 0 c -0.222474,-2.201969 -0.446496,-4.403843 -0.709806,-6.601394 -0.432627,-3.716536 -0.884,-7.430282 -1.385382,-11.138172 0,0 -3.0277293,1.618763 -3.0277293,1.618763 z"
       inkscape:connector-curvature="0" />
    <path
       style="fill:#4e9a06;stroke:none;stroke-width:5.7484231"
       id="path923"
       d="m 7.5267289,62.486958 c -0.044412,1.857343 -0.1860435,3.710514 -0.3216571,5.562869 0,0 2.9167422,-1.464677 2.9167422,-1.464677 v 0 c 0.08198,-1.865135 0.16637,-3.732414 0.386534,-5.58752 0,0 -2.9816191,1.489328 -2.9816191,1.489328 z"
       inkscape:connector-curvature="0" />
    <path
       style="fill:#4e9a06;stroke:none;stroke-width:5.7484231"
       id="path925"
       d="m 10.604125,57.386691 c 1.755477,3.004665 2.741748,6.387868 3.679952,9.717662 0.411324,1.601505 0.228427,0.849855 0.555609,2.253254 0,0 2.908289,-1.578656 2.908289,-1.578656 v 0 c -0.411958,-1.36724 -0.187252,-0.633876 -0.677414,-2.199076 -1.078085,-3.332233 -2.181151,-6.662392 -3.467894,-9.920349 0,0 -2.998542,1.727165 -2.998542,1.727165 z"
       inkscape:connector-curvature="0" />
    <path
       style="fill:#4e9a06;stroke:none;stroke-width:5.7484231"
       id="path927"
       d="m 49.549593,0.45193898 c 1.210172,2.93156312 1.915131,6.03815912 2.593519,9.12684372 0.07947,0.3545151 0.158922,0.7090293 0.238383,1.0635443 0,0 2.895836,-1.5657115 2.895836,-1.5657115 v 0 C 55.182551,8.731775 55.087761,8.3869344 54.992979,8.0420939 54.206316,4.956403 53.416857,1.8709535 52.491793,-1.1768542 c 0,0 -2.9422,1.62879318 -2.9422,1.62879318 z"
       inkscape:connector-curvature="0" />
    <path
       style="fill:#4e9a06;stroke:none;stroke-width:5.7484231"
       id="path929"
       d="m 48.340974,17.162782 c -0.214796,2.533093 -0.377439,5.071453 -0.556259,7.607682 -0.06527,1.674239 -0.174373,3.342947 -0.334592,5.011019 0,0 2.97738,-1.485523 2.97738,-1.485523 v 0 c 0.121557,-1.66316 0.260924,-3.325305 0.279345,-4.993925 0.104668,-2.559183 0.209883,-5.141009 0.733753,-7.654645 0,0 -3.099627,1.515392 -3.099627,1.515392 z"
       inkscape:connector-curvature="0" />
    <path
       style="fill:#4e9a06;stroke:none;stroke-width:5.7484231"
       id="path931"
       d="m 62.891604,20.625354 c 1.538771,2.972545 2.714193,6.11577 3.739574,9.296685 0.135434,0.468419 0.270867,0.936836 0.406302,1.405252 0,0 2.82019,-1.545679 2.82019,-1.545679 v 0 c -0.153433,-0.461235 -0.306862,-0.922472 -0.460295,-1.383706 -1.105908,-3.172964 -2.310854,-6.309617 -3.533459,-9.439237 0,0 -2.972312,1.666685 -2.972312,1.666685 z"
       inkscape:connector-curvature="0" />
    <path
       style="fill:#4e9a06;stroke:none;stroke-width:5.7484231"
       id="path933"
       d="m 68.432939,53.188229 c -0.966488,3.299538 -2.435588,6.429677 -3.756911,9.598264 -0.698629,1.616333 -1.383094,3.23767 -1.93594,4.910184 0,0 3.044075,-1.434818 3.044075,-1.434818 v 0 c 0.498479,-1.636023 1.154525,-3.212362 1.77164,-4.806134 0.589912,-1.512718 0.68867,-1.789578 1.343237,-3.360404 0.892566,-2.141968 1.892304,-4.244253 2.631558,-6.446733 0,0 -3.097659,1.539641 -3.097659,1.539641 z"
       inkscape:connector-curvature="0" />
    <path
       style="fill:#4e9a06;stroke:none;stroke-width:5.7484231"
       id="path935"
       d="m 52.64598,60.447899 c 0.588501,2.516535 0.906306,5.084025 1.161955,7.65238 0,0 2.908881,-1.525602 2.908881,-1.525602 v 0 C 56.362658,64.001393 55.97462,61.43264 55.66089,58.853959 c 0,0 -3.01491,1.59394 -3.01491,1.59394 z"
       inkscape:connector-curvature="0" />
    <path
       style="fill:#4e9a06;stroke:none;stroke-width:5.7484231"
       id="path937"
       d="m 43.888487,51.510727 c -0.848354,3.124632 -1.782034,6.223328 -2.750121,9.312853 -0.549082,1.761163 -0.291081,0.927956 -0.775002,2.499314 0,0 2.963816,-1.407088 2.963816,-1.407088 v 0 c 0.408993,-1.535355 0.186601,-0.72014 0.671157,-2.444558 0.932732,-3.158324 1.845296,-6.332352 2.995502,-9.41891 0,0 -3.105352,1.458389 -3.105352,1.458389 z"
       inkscape:connector-curvature="0" />
    <path
       style="fill:#4e9a06;stroke:none;stroke-width:5.7484231"
       id="path939"
       d="m 30.838249,61.346433 c 0.725957,1.61998 1.112029,3.354257 1.494533,5.078617 0.197981,1.158211 0.505445,2.291086 0.767321,3.434891 0.162263,0.652805 0.07373,0.341347 0.261182,0.935621 0,0 2.997404,-1.649651 2.997404,-1.649651 v 0 c -0.193964,-0.561048 -0.102149,-0.263573 -0.269202,-0.894334 -0.257542,-1.139689 -0.552081,-2.270947 -0.822793,-3.407578 -0.428683,-1.733306 -0.86115,-3.463135 -1.395967,-5.167683 0,0 -3.032478,1.670117 -3.032478,1.670117 z"
       inkscape:connector-curvature="0" />
    <path
       style="fill:#4e9a06;stroke:none;stroke-width:5.7484231"
       id="path941"
       d="m 28.938388,37.784259 c 0.165287,2.070677 0.140101,4.151442 0.133712,6.226944 0,0 2.81056,-1.432052 2.81056,-1.432052 v 0 c -0.0066,-2.121061 -0.02735,-4.246627 0.133709,-6.3632 0,0 -3.077981,1.568308 -3.077981,1.568308 z"
       inkscape:connector-curvature="0" />
    <path
       style="fill:#73d216;stroke:none;stroke-width:5.7484231"
       id="path943"
       d="m -2.373089,10.080628 c -0.1312998,1.340512 -0.391939,2.666215 -0.5280686,4.00596 -0.07366,0.72494 -0.1401951,2.052328 -0.1795788,2.742526 -0.1400141,2.596023 -0.5292329,5.164223 -0.9353498,7.72867 0,0 2.9220727,-1.43677 2.9220727,-1.43677 v 0 c 0.33042587,-2.571395 0.6754498,-5.141437 0.88075215,-7.726856 0.20147252,-2.288506 0.40029708,-4.590564 0.94557486,-6.8284059 0,0 -3.10540251,1.5148759 -3.10540251,1.5148759 z"
       inkscape:connector-curvature="0" />
    <path
       style="fill:#4e9a06;stroke:none;stroke-width:5.7484231"
       id="path955"
       d="m 27.069485,6.269297 c -0.09322,2.8846763 0.387745,5.746647 0.781675,8.594456 0.211943,1.389536 0.09998,0.739717 0.327172,1.950937 0,0 1.373567,-0.734492 1.373567,-0.734492 v 0 c -0.254687,-1.189479 -0.129125,-0.549938 -0.366556,-1.920585 -0.429586,-2.840642 -0.93329,-5.7172832 -0.686126,-8.5989838 0,0 -1.429732,0.7086678 -1.429732,0.7086678 z"
       inkscape:connector-curvature="0" />
    <path
       style="fill:#4e9a06;stroke:none;stroke-width:5.7484231"
       id="path957"
       d="m 45.378944,40.553076 c 0.394796,2.866889 0.68212,5.746412 0.998883,8.622409 0.04402,0.254651 0.08804,0.509305 0.132058,0.763959 0,0 1.381695,-0.73635 1.381695,-0.73635 v 0 C 47.84201,48.955046 47.79244,48.707003 47.742868,48.458958 47.358419,45.59007 47.020455,42.712423 46.77625,39.82825 c 0,0 -1.397306,0.724826 -1.397306,0.724826 z"
       inkscape:connector-curvature="0" />
    <path
       style="fill:#4e9a06;stroke:none;stroke-width:5.7484231"
       id="path959"
       d="m 58.285014,38.117516 c 0.280203,3.055144 0.850464,6.074682 1.308803,9.106433 0.06044,0.424263 0.120881,0.848526 0.181322,1.27279 0,0 1.341549,-0.70924 1.341549,-0.70924 v 0 c -0.06796,-0.420594 -0.135905,-0.841186 -0.203857,-1.26178 -0.49621,-3.029616 -1.107312,-6.064992 -1.189245,-9.141193 0,0 -1.438572,0.73299 -1.438572,0.73299 z"
       inkscape:connector-curvature="0" />
    <path
       style="fill:#4e9a06;stroke:none;stroke-width:5.7484231"
       id="path961"
       d="m 19.841138,36.490438 c 0.04171,1.615347 0.02796,3.231599 0.01339,4.847245 0,0 1.406224,-0.716509 1.406224,-0.716509 v 0 c -0.01474,-1.6202 -0.02796,-3.240984 0.01339,-4.860894 0,0 -1.433016,0.730158 -1.433016,0.730158 z"
       inkscape:connector-curvature="0" />
    <path
       style="fill:#73d216;stroke:none;stroke-width:5.7484231"
       id="path963"
       d="m 7.7901728,46.55558 c 0.2027599,1.294101 0.3775399,2.591806 0.5085053,3.895248 0.037537,0.37354 0.047551,0.750242 0.103058,1.121539 0.068935,0.461189 0.1798455,0.91512 0.2697694,1.372681 0.6456263,2.676825 1.1661988,5.381927 1.8368425,8.052582 0,0 1.342311,-0.728103 1.342311,-0.728103 v 0 C 11.118914,57.620094 10.556882,54.927371 10.001254,52.236393 9.9209025,51.778912 9.8248657,51.32391 9.7601889,50.86395 9.7079471,50.492399 9.6886899,50.116946 9.6507502,49.743663 9.5178165,48.43559 9.3413752,47.132109 9.2294279,45.822241 c 0,0 -1.4392563,0.733339 -1.4392563,0.733339 z"
       inkscape:connector-curvature="0" />
    <path
       style="fill:#73d216;stroke:none;stroke-width:5.7484231"
       id="path965"
       d="m 28.835354,24.565518 c 0.235971,1.981529 0.298196,3.979429 0.356645,5.972621 0.04316,1.521517 0.05247,3.043647 0.05744,4.56567 0,0 1.366528,-0.697284 1.366528,-0.697284 v 0 c -0.01277,-1.523437 -0.02135,-3.047008 -0.05722,-4.57013 -0.06565,-2.005545 -0.154183,-4.010672 -0.296166,-6.012401 0,0 -1.427228,0.741524 -1.427228,0.741524 z"
       inkscape:connector-curvature="0" />
    <path
       style="fill:#73d216;stroke:none;stroke-width:5.7484231"
       id="path967"
       d="m 49.707454,32.478042 c -0.413854,2.876953 -0.956391,5.733479 -1.435737,8.599977 0,0 1.319337,-0.645536 1.319337,-0.645536 v 0 c 0.462326,-2.897522 0.982505,-5.784512 1.549077,-8.663535 0,0 -1.432677,0.709094 -1.432677,0.709094 z"
       inkscape:connector-curvature="0" />
    <path
       style="fill:#73d216;stroke:none;stroke-width:5.7484231"
       id="path969"
       d="m 56.974712,23.451454 c -0.585081,4.615136 -0.974061,9.25302 -1.357922,13.888437 -0.243941,4.004155 -0.349364,8.014534 -0.462418,12.023905 0,0 1.235965,-0.626223 1.235965,-0.626223 v 0 c 0.06897,-4.006144 0.162467,-8.01368 0.45445,-12.011061 0.361871,-4.674415 0.742389,-9.363944 1.579569,-13.981245 0,0 -1.449644,0.706187 -1.449644,0.706187 z"
       inkscape:connector-curvature="0" />
    <path
       style="fill:#73d216;stroke:none;stroke-width:5.7484231"
       id="path971"
       d="m 22.31101,31.409729 c -0.05644,1.97894 -0.247844,3.956749 -0.270231,5.93657 -0.02026,1.791797 0.07043,2.841869 0.171598,4.647782 0.08074,0.833733 0.148438,1.668836 0.242238,2.501201 0.08701,0.772054 0.517126,3.933102 0.620731,4.726887 0.231673,1.774979 0.435921,3.553019 0.658193,5.329142 0,0 1.329284,-0.700119 1.329284,-0.700119 v 0 c -0.259377,-1.761141 -0.491786,-3.525815 -0.732926,-5.289562 -0.0723,-0.528797 -0.575736,-4.21346 -0.631805,-4.714789 -0.09302,-0.831781 -0.154197,-1.666816 -0.231296,-2.500224 -0.03931,-0.803531 -0.0959,-1.606405 -0.117936,-2.410596 -0.07548,-2.753836 0.138338,-5.506256 0.403239,-8.245135 0,0 -1.441089,0.718843 -1.441089,0.718843 z"
       inkscape:connector-curvature="0" />
    <path
       style="fill:#73d216;stroke:none;stroke-width:5.7484231"
       id="path973"
       d="m 22.736507,-3.1765186 c 0.08342,2.36566191 -0.0059,4.7331467 0.04298,7.0989238 0.0852,1.3685124 0.233477,2.7316889 0.311628,4.1007016 0,0 1.409704,-0.7294097 1.409704,-0.7294097 v 0 c -0.09265,-1.3617152 -0.251306,-2.717259 -0.341184,-4.0791555 -0.07765,-2.36971458 -0.04813,-4.7428512 -0.0062,-7.1129948 0,0 -1.416876,0.7219346 -1.416876,0.7219346 z"
       inkscape:connector-curvature="0" />
    <path
       style="fill:#73d216;stroke:none;stroke-width:5.7484231"
       id="path975"
       d="m 30.904967,-0.25714055 c 0.202614,3.72910215 0.651754,7.44182775 1.013275,11.15838655 0,0 1.244126,-0.649875 1.244126,-0.649875 v 0 C 32.766595,6.52052 32.296119,2.7790402 32.320844,-0.97856554 c 0,0 -1.415877,0.72142499 -1.415877,0.72142499 z"
       inkscape:connector-curvature="0" />
    <path
       style="fill:#73d216;stroke:none;stroke-width:5.7484231"
       id="path977"
       d="M 0.2742941,70.572826 C 0.20372459,65.440268 0.1186919,60.307646 0.07963175,55.174611 c 0,0 -1.19695425,0.611545 -1.19695425,0.611545 v 0 c 0.07476,5.166351 0.1061563,10.333918 -0.00834,15.499985 0,0 1.39995708,-0.713315 1.3999566,-0.713315 z"
       inkscape:connector-curvature="0" />
    <path
       style="fill:#73d216;stroke:none;stroke-width:5.7484231"
       id="path979"
       d="m 9.9096229,71.482786 c 0.6656181,-2.451992 1.3271231,-4.904821 1.9888281,-7.357876 1.382497,-4.778246 2.181982,-9.682154 2.857214,-14.60078 0.07397,-0.592832 0.147952,-1.185666 0.221929,-1.778499 0,0 -1.318128,0.652638 -1.318128,0.652638 v 0 c -0.0622,0.586201 -0.124393,1.172399 -0.18659,1.758599 -0.230923,1.858869 -0.337609,2.850275 -0.647878,4.747362 -0.544563,3.329638 -1.32163,6.612479 -2.25572,9.853738 -0.6885835,2.473977 -1.3454456,4.958368 -2.1165705,7.408283 0,0 1.4569154,-0.683465 1.4569154,-0.683465 z"
       inkscape:connector-curvature="0" />
    <path
       style="fill:#73d216;stroke:none;stroke-width:5.7484231"
       id="path981"
       d="m 26.294427,67.933809 c 0.607499,-2.790812 1.459208,-5.520677 2.295453,-8.249103 0,0 -1.27623,0.603445 -1.27623,0.603445 v 0 c -0.837779,2.768977 -1.68949,5.535239 -2.439856,8.329476 0,0 1.420633,-0.683818 1.420633,-0.683818 z"
       inkscape:connector-curvature="0" />
    <path
       style="fill:#73d216;stroke:none;stroke-width:5.7484231"
       id="path983"
       d="m -1.6620514,-1.7067713 c 1.39119258,3.5737591 2.23976823,7.3250049 3.2993977,11.0024769 0.3023874,1.0494444 0.6298382,2.0915044 0.9447574,3.1372574 0.8483125,2.702391 1.7601442,5.383868 2.6806947,8.062237 0,0 1.2355298,-0.683361 1.2355298,-0.683361 v 0 C 5.5335997,17.15638 4.5807867,14.496028 3.7498957,11.794713 3.4412571,10.746827 3.1195031,9.702712 2.8239802,8.6510508 1.782398,4.9444286 0.93338191,1.1818266 -0.2710046,-2.4785552 c 0,0 -1.3910468,0.7717839 -1.3910468,0.7717839 z"
       inkscape:connector-curvature="0" />
    <path
       style="fill:#73d216;stroke:none;stroke-width:5.7484231"
       id="path985"
       d="m 66.302172,-2.3254231 c -2.159133,2.20276465 -4.015014,4.6810534 -5.815536,7.178963 0,0 1.398969,-0.6067938 1.398969,-0.6067938 v 0 c 1.781581,-2.5216851 3.643251,-5.01151011 5.863939,-7.1681617 0,0 -1.447372,0.5959925 -1.447372,0.5959925 z"
       inkscape:connector-curvature="0" />
    <path
       style="fill:#73d216;stroke:none;stroke-width:5.7484231"
       id="path987"
       d="m 54.123992,1.6935171 c -0.70059,2.8633455 -1.340124,5.7402038 -2.070543,8.5965309 -0.344794,1.22246 -0.715787,2.437239 -1.081531,3.653517 0,0 1.392484,-0.660385 1.392484,-0.660385 v 0 c 0.342622,-1.210394 0.692904,-2.41862 1.024192,-3.6321993 0.723858,-2.8831504 1.355097,-5.7910462 2.180973,-8.647179 0,0 -1.445575,0.6897154 -1.445575,0.6897154 z"
       inkscape:connector-curvature="0" />
    <path
       style="fill:#73d216;stroke:none;stroke-width:5.7484231"
       id="path989"
       d="m 39.951488,-0.71564858 c 1.25079,2.81172258 2.320492,5.70072098 3.599751,8.50087248 0.387803,0.8488507 0.802171,1.6853111 1.203259,2.5279661 1.279493,2.578225 2.486639,5.190012 3.610327,7.839515 0,0 1.298807,-0.730913 1.298807,-0.730913 v 0 C 48.475763,14.802783 47.223513,12.214658 45.951557,9.6354668 45.559309,8.7896468 45.152986,7.9502109 44.774814,7.0980054 43.521717,4.274189 42.430416,1.3805678 41.352085,-1.5131039 c 0,0 -1.400597,0.79745532 -1.400597,0.79745532 z"
       inkscape:connector-curvature="0" />
    <path
       style="fill:#73d216;stroke:none;stroke-width:5.7484231"
       id="path991"
       d="m 51.937478,33.868952 c 0.754261,3.845009 1.349201,7.718207 1.888864,11.598354 0.06292,0.447637 0.125848,0.895273 0.188776,1.342907 0,0 1.335833,-0.706464 1.335833,-0.706464 v 0 c -0.07357,-0.441747 -0.147136,-0.883493 -0.220701,-1.325238 -0.614838,-3.884882 -1.275765,-7.763829 -1.778965,-11.665226 0,0 -1.413807,0.755667 -1.413807,0.755667 z"
       inkscape:connector-curvature="0" />
    <path
       style="fill:#4e9a06;stroke:none;stroke-width:5.7484231"
       id="path993"
       d="m 65.89107,54.766515 c -1.27792,3.111214 -2.234348,6.345085 -3.217106,9.558725 0,0 1.327527,-0.628142 1.327527,-0.628142 v 0 c 0.96459,-3.245124 1.93083,-6.51175 3.341396,-9.596414 0,0 -1.451817,0.665831 -1.451817,0.665831 z"
       inkscape:connector-curvature="0" />
    <path
       style="fill:#4e9a06;stroke:none;stroke-width:5.7484231"
       id="path995"
       d="m 16.348964,14.222505 c 0.865554,2.601147 1.539562,5.263824 2.213647,7.919777 0.61844,2.708511 0.329901,1.377386 0.868974,3.992647 0,0 1.281502,-0.686768 1.281502,-0.686768 v 0 c -0.559444,-2.609946 -0.266144,-1.279464 -0.881878,-3.991011 -0.630508,-2.687139 -1.317759,-5.360553 -2.073667,-8.015378 0,0 -1.408578,0.780733 -1.408578,0.780733 z"
       inkscape:connector-curvature="0" />
    <path
       style="fill:#4e9a06;stroke:none;stroke-width:5.7484231"
       id="path997"
       d="M 6.8205394,-0.89058621 C 8.4970842,4.4415544 9.6854225,9.9036106 10.736804,15.387615 c 0,0 1.233111,-0.659414 1.233111,-0.659414 v 0 C 10.818564,9.2497733 9.5712494,3.7939963 8.2000431,-1.6338523 c 0,0 -1.3795037,0.74326609 -1.3795037,0.74326609 z"
       inkscape:connector-curvature="0" />
    <path
       style="fill:#4e9a06;stroke:none;stroke-width:5.7484231"
       id="path999"
       d="m 35.131586,23.763176 c 0.516608,2.798267 1.146184,5.573898 1.674743,8.370517 0.246387,1.33728 0.44988,2.681768 0.663724,4.024456 0,0 1.358169,-0.721418 1.358169,-0.721418 v 0 c -0.245967,-1.330331 -0.477332,-2.663233 -0.72983,-3.992373 -0.542683,-2.81572 -1.155174,-5.620175 -1.551222,-8.461297 0,0 -1.415584,0.780115 -1.415584,0.780115 z"
       inkscape:connector-curvature="0" />
    <g
       id="g117"
       transform="matrix(1.3814995,0,0,1.3814995,116.32281,115.36185)">
      <path
         transform="translate(-62.816064,-7.7519826)"
         inkscape:transform-center-y="-0.96317689"
         inkscape:transform-center-x="2.2967117"
         d="m 18.964884,-41.880801 c -1.110353,1.180459 -5.371071,1.952917 -6.938072,2.545815 -1.567002,0.592899 -5.4904788,3.0646 -7.1761662,3.256495 -1.6856877,0.191894 -3.5317986,-2.223153 -4.9885296,-3.155796 -1.4567308,-0.932642 -8.429909,-0.277702 -9.4039026,-1.699122 -0.9739936,-1.42142 1.4706014,-7.506984 1.0900592,-9.201593 -0.3805422,-1.694609 -4.4152188,-6.41064 -4.0909578,-8.086627 0.324262,-1.675988 4.2044621,-4.416171 5.30557,-5.602798 1.1011078,-1.186626 3.4847136,-5.609428 5.0089779,-6.270375 1.52426452,-0.660946 4.975263,-0.337407 6.6301217,-0.18237 1.6548584,0.155037 8.6826674,-0.06945 10.1554334,0.613301 1.472767,0.682754 0.887426,5.348493 1.995721,6.58696 1.108296,1.238467 6.429291,3.132006 6.788553,4.748054 0.359261,1.616048 -3.720695,6.946129 -4.060606,8.598708 -0.339912,1.652579 0.79415,6.668889 -0.316202,7.849348 z"
         inkscape:randomized="0.077"
         inkscape:rounded="0.21"
         inkscape:flatsided="false"
         sodipodi:arg2="1.1293202"
         sodipodi:arg1="0.68052122"
         sodipodi:r2="15.519136"
         sodipodi:r1="18.257807"
         sodipodi:cy="-53.569653"
         sodipodi:cx="5.4060135"
         sodipodi:sides="7"
         id="path105"
         style="fill:#305f04;fill-opacity:1;stroke-width:0.21968748"
         sodipodi:type="star" />
      <path
         transform="translate(24.415497,29.095134)"
         inkscape:transform-center-y="0.35792184"
         inkscape:transform-center-x="-0.42272965"
         d="m -72.895086,-67.938216 c -1.506744,1.071079 -6.31985,0.503966 -8.067002,1.104775 -1.747153,0.60081 -8.401562,1.79376 -10.213829,1.61054 -1.812266,-0.183221 -2.858534,-5.342329 -4.425036,-6.375843 -1.566502,-1.033514 -8.798787,-1.847907 -9.520837,-3.612165 -0.72205,-1.764258 1.02232,-6.820169 1.03265,-8.672185 0.0103,-1.852017 -2.63952,-6.328004 -1.6837,-7.975155 0.95583,-1.647151 8.106771,-2.762815 9.532731,-4.034413 1.425959,-1.271597 2.145968,-5.589528 3.98414,-5.918258 1.838171,-0.32873 7.367158,1.28473 9.173353,1.80223 1.806195,0.5175 8.407471,0.02163 9.95977,0.967109 1.552298,0.945475 0.02144,4.837688 0.723157,6.507779 0.701715,1.670091 5.898143,7.501794 6.051322,9.343399 0.153179,1.841605 -4.147278,3.855407 -5.015841,5.506864 -0.868564,1.651457 -0.02413,8.674244 -1.530878,9.745323 z"
         inkscape:randomized="0.077"
         inkscape:rounded="0.21"
         inkscape:flatsided="false"
         sodipodi:arg2="1.327451"
         sodipodi:arg1="0.87865208"
         sodipodi:r2="17.072384"
         sodipodi:r1="20.085157"
         sodipodi:cy="-83.846207"
         sodipodi:cx="-86.268089"
         sodipodi:sides="7"
         id="path107"
         style="fill:#4e9a06;stroke-width:0.26458332"
         sodipodi:type="star" />
      <path
         transform="translate(-15.053051,-4.681336)"
         inkscape:transform-center-y="-1.399215"
         inkscape:transform-center-x="-0.15726664"
         d="m -41.086857,-41.196275 c -0.788792,1.095809 -4.919462,2.945019 -6.096587,3.611314 -1.177124,0.666295 -2.593207,2.232041 -3.966346,2.08324 -1.373138,-0.148802 -6.088141,-1.934865 -7.382042,-2.43766 -1.293901,-0.502794 -3.701972,-1.469466 -4.401945,-2.597834 -0.699973,-1.128368 -0.03947,-5.744384 -0.309661,-7.054014 -0.270193,-1.30963 -4.19996,-4.974964 -3.791627,-6.225591 0.408334,-1.250627 5.331009,-3.092536 6.111629,-4.165065 0.78062,-1.07253 2.633134,-5.820727 3.777329,-6.472162 1.144196,-0.651436 3.647556,1.424605 5.002449,1.380295 1.354893,-0.04431 6.66188,0.211482 7.811684,0.867245 1.149804,0.655763 1.614791,4.237766 2.327424,5.39448 0.712634,1.156714 5.182129,3.862078 5.558565,5.167006 0.376435,1.304928 -2.990683,2.787718 -3.467834,4.02734 -0.477151,1.239622 -0.384246,5.325598 -1.173038,6.421406 z"
         inkscape:randomized="0.077"
         inkscape:rounded="0.21"
         inkscape:flatsided="false"
         sodipodi:arg2="1.1547189"
         sodipodi:arg1="0.70591992"
         sodipodi:r2="12.6714"
         sodipodi:r1="14.90753"
         sodipodi:cy="-49.860954"
         sodipodi:cx="-51.516804"
         sodipodi:sides="7"
         id="path111"
         style="fill:#60b012;fill-opacity:1;stroke-width:0.24185066"
         sodipodi:type="star" />
      <path
         transform="translate(16.033039,-10.225389)"
         inkscape:transform-center-y="0.31037807"
         inkscape:transform-center-x="0.16736835"
         d="m -70.752575,-32.354041 c -0.640919,0.692673 -2.994248,0.549408 -3.8583,0.893063 -0.864052,0.343656 -3.396693,3.11287 -4.31826,2.97583 -0.921567,-0.137041 -3.02,-2.492357 -3.763395,-3.11759 -0.743394,-0.625233 -3.069027,-1.216949 -3.510887,-2.049204 -0.441861,-0.832256 -0.108716,-4.633584 -0.213623,-5.556781 -0.104907,-0.923196 -1.011517,-2.477154 -0.590207,-3.324133 0.421311,-0.846979 2.559695,-2.40817 3.183304,-3.095266 0.62361,-0.687096 2.949765,-3.477899 3.865318,-3.745032 0.915554,-0.267134 3.596953,1.952898 4.552019,1.973385 0.955066,0.02049 3.124586,-1.466675 3.8372,-0.882684 0.712615,0.583991 1.946656,3.138167 2.367127,3.958929 0.420471,0.820762 2.461255,2.958002 2.578148,3.904588 0.116893,0.946586 -2.734624,2.942979 -3.056809,3.842234 -0.322184,0.899254 -0.430716,3.529989 -1.071635,4.222661 z"
         inkscape:randomized="0.077"
         inkscape:rounded="0.21"
         inkscape:flatsided="false"
         sodipodi:arg2="1.2619678"
         sodipodi:arg1="0.8131688"
         sodipodi:r2="8.8082218"
         sodipodi:r1="10.362613"
         sodipodi:cy="-39.28793"
         sodipodi:cx="-77.315742"
         sodipodi:sides="7"
         id="path109"
         style="fill:#365f0e;fill-opacity:1;stroke-width:0.26458332"
         sodipodi:type="star" />
    </g>
  </g>
</svg>
